<?xml version="1.0" encoding="UTF-8"?>
<svg version="1.1" xmlns="http://www.w3.org/2000/svg" width="512" height="512">
<path d="M0 0 C1.18369186 -0.00657338 1.18369186 -0.00657338 2.39129668 -0.01327956 C5.04429886 -0.02666934 7.69726782 -0.03284683 10.35029602 -0.03897095 C12.24906566 -0.04687179 14.14783379 -0.05514074 16.04660034 -0.06375122 C22.29015162 -0.0899741 28.53370962 -0.10527948 34.77729797 -0.11953735 C36.92636939 -0.12489699 39.07544077 -0.1302745 41.2245121 -0.13566971 C50.16411985 -0.15729913 59.10372579 -0.17603579 68.04335308 -0.1872921 C80.85585867 -0.20353085 93.66806098 -0.2367063 106.48045224 -0.29369295 C115.4886312 -0.33239345 124.49672905 -0.35192496 133.50498897 -0.35721266 C138.88543897 -0.36086604 144.26556551 -0.37288614 149.64592552 -0.4053154 C154.70950592 -0.43539762 159.77256717 -0.44170718 164.83621788 -0.42993164 C166.69215836 -0.42971092 168.54812294 -0.43801489 170.40398026 -0.45558548 C187.35089784 -0.6072668 187.35089784 -0.6072668 192.9536562 3.79379845 C193.4072158 4.24263201 193.86077539 4.69146557 194.32807922 5.15390015 C194.8207664 5.63002054 195.31345358 6.10614094 195.82107067 6.59668922 C200.86259724 12.04935073 201.62671685 17.84431695 201.58877563 24.99676514 C201.59260118 25.76803856 201.59642673 26.53931197 201.6003682 27.33395731 C201.61065579 29.90861121 201.60671415 32.48304033 201.60273743 35.05770874 C201.60708627 36.90766099 201.61226999 38.75761143 201.6182251 40.6075592 C201.63160826 45.62619637 201.63219449 50.64475818 201.6296618 55.66340971 C201.62859156 59.85571162 201.63347684 64.04799831 201.63826722 68.24029696 C201.64936019 78.13240805 201.64980108 88.02448116 201.64375305 97.91659546 C201.63771345 108.11515577 201.65002445 118.31357811 201.67132312 128.51211488 C201.68894755 137.27408075 201.69493912 146.03600274 201.69168538 154.79798567 C201.68987362 160.02850256 201.69249795 165.25892104 201.70639992 170.48942184 C201.71898718 175.4093293 201.71702559 180.32902195 201.70398903 185.24892616 C201.70162561 187.05163585 201.70434951 188.85436069 201.71261215 190.65705299 C201.72310143 193.12397235 201.71496182 195.59017381 201.70230103 198.05706787 C201.70967531 198.76506165 201.7170496 199.47305543 201.72464734 200.20250356 C201.65551949 206.63505251 200.15336167 211.983294 196.01557922 216.90390015 C189.06639148 222.72182477 184.62632207 224.30335614 175.73245239 224.30107117 C174.96359339 224.30474786 174.19473439 224.30842454 173.40257663 224.31221265 C170.82410783 224.32323293 168.24567936 224.32709052 165.66719055 224.3309021 C163.81915662 224.33716801 161.97112395 224.34381492 160.12309265 224.35081482 C154.0521075 224.37184264 147.98112212 224.38221607 141.91011047 224.3921814 C139.81894607 224.39622944 137.7277818 224.40034638 135.63661766 224.40453148 C125.81165936 224.42358039 115.98670857 224.43781202 106.16173536 224.44614345 C94.82620572 224.4559149 83.49087141 224.48223336 72.15541059 224.52264434 C63.39007967 224.55281885 54.6248047 224.5676136 45.85942286 224.57092446 C40.62599977 224.57327343 35.39278541 224.58221406 30.15941811 224.60738564 C25.23375966 224.63069462 20.30844699 224.63488816 15.38274765 224.62462425 C13.57883617 224.62412947 11.77490751 224.63043288 9.97104836 224.6441803 C-9.83919489 224.78666148 -9.83919489 224.78666148 -16.52814007 218.37448597 C-21.50390582 212.96037324 -22.97025279 208.72346454 -22.93934631 201.36172485 C-22.94387743 200.57174252 -22.94840854 199.78176019 -22.95307696 198.967839 C-22.96574797 196.31788604 -22.96409884 193.66813789 -22.96244812 191.01815796 C-22.96843177 189.11923966 -22.97523694 187.22032379 -22.98280334 185.32141113 C-23.00048926 180.16010545 -23.00515988 174.99886605 -23.00643492 169.837533 C-23.00833346 165.52852005 -23.01569067 161.21952255 -23.02277911 156.91051555 C-23.03907124 146.74228683 -23.04394739 136.57409354 -23.04252625 126.40585327 C-23.04132523 115.91987566 -23.06241717 105.43410402 -23.09401357 94.94817853 C-23.12017685 85.94421586 -23.13089349 76.94032045 -23.12961543 67.93632007 C-23.12910572 62.55930264 -23.1347935 57.18246813 -23.15597153 51.80548859 C-23.17535414 46.74603354 -23.17547809 41.68693586 -23.16093826 36.62746811 C-23.15884896 34.77315371 -23.16355829 32.91881695 -23.17565918 31.06454086 C-23.19114118 28.52727949 -23.18178461 25.99124576 -23.16639709 23.45401001 C-23.17668422 22.72519725 -23.18697135 21.99638449 -23.1975702 21.2454865 C-23.11368282 14.9592135 -21.09670799 9.60661198 -16.63676453 5.0953064 C-15.96774109 4.64026733 -15.29871765 4.18522827 -14.60942078 3.71640015 C-13.93781921 3.24331421 -13.26621765 2.77022827 -12.57426453 2.2828064 C-8.48729356 -0.14252134 -4.5954078 0.00308837 0 0 Z " fill="#EFCD49" transform="translate(22.671920776367188,-0.153900146484375)"/>
<path d="M0 0 C1.1689375 -0.00573832 1.1689375 -0.00573832 2.36148989 -0.01159257 C4.96922173 -0.02190011 7.57673247 -0.01793469 10.18447876 -0.01396179 C12.05561018 -0.01830953 13.92673983 -0.02349289 15.79786682 -0.02944946 C20.87847728 -0.0428446 25.95901337 -0.04341751 31.03963804 -0.04088616 C35.28169053 -0.03981672 39.52372796 -0.04469918 43.76577723 -0.04949158 C53.77433372 -0.06058873 63.78285268 -0.06102312 73.79141235 -0.05497742 C84.1143712 -0.04893764 94.43719374 -0.06124831 104.76012933 -0.08254749 C113.62481854 -0.10016494 122.48946437 -0.10616458 131.35417044 -0.10290974 C136.64782709 -0.10109685 141.94138652 -0.1037337 147.23502731 -0.11762428 C152.21401346 -0.13020016 157.19278721 -0.12826072 162.1717701 -0.11521339 C163.99747476 -0.11284748 165.82319437 -0.11558283 167.64888191 -0.12383652 C170.1446666 -0.13430459 172.63973874 -0.12620307 175.13549805 -0.11352539 C175.85486868 -0.12089968 176.57423932 -0.12827396 177.31540906 -0.13587171 C184.39914972 -0.06037539 190.08438475 2.28846601 195.19473267 7.26069641 C199.47288356 13.42584315 200.34409038 18.47424578 200.33517456 25.8250885 C200.33814568 26.59056952 200.34111681 27.35605053 200.34417796 28.14472795 C200.35285485 30.71171548 200.35437236 33.27865631 200.35586548 35.84565735 C200.36049438 37.68546142 200.36551914 39.52526453 200.37091064 41.36506653 C200.38403001 46.36520699 200.39047875 51.36533402 200.3949213 56.36548901 C200.39785288 59.489966 200.40195786 62.61443934 200.40642548 65.73891449 C200.42009941 75.51635272 200.42976648 85.29378257 200.43362737 95.0712297 C200.4381075 106.35466351 200.45565377 117.63797616 200.48462796 128.92137313 C200.50625094 137.64507601 200.51633199 146.36874482 200.51766849 155.09247422 C200.5187161 160.30179137 200.52461472 165.51099459 200.5424881 170.72028351 C200.5589793 175.62209523 200.56111915 180.52370751 200.55234909 185.42553711 C200.55157927 187.22179957 200.55591416 189.01807279 200.56580734 190.81430817 C200.57854963 193.27256475 200.57263796 195.73011738 200.56222534 198.18836975 C200.57430995 199.24657035 200.57430995 199.24657035 200.58663869 200.32614875 C200.52153904 206.92853505 198.63878557 212.05214491 195.06973267 217.51069641 C186.44872998 225.75687289 175.96340973 224.83282418 164.76675415 224.77827454 C162.89665178 224.7837004 161.02655368 224.79082566 159.15646362 224.79951477 C154.09659609 224.81769452 149.0370561 224.81070303 143.9771831 224.79799843 C138.67314976 224.78784453 133.36914374 224.7972706 128.06510925 224.80354309 C119.16043075 224.8108119 110.25588512 224.80125123 101.35122681 224.78218079 C91.06563978 224.76040688 80.78036986 224.76747033 70.49479049 224.78948641 C61.65206679 224.80765425 52.80943839 224.81019214 43.96670204 224.79973173 C38.69038418 224.7935053 33.41421525 224.79263796 28.13790703 224.80587769 C23.17766388 224.81745591 18.21782861 224.80937433 13.25762939 224.78630066 C11.44041177 224.78102441 9.62315966 224.78250875 7.80595589 224.79135132 C5.31928002 224.80233347 2.83389934 224.7885123 0.3473053 224.76863098 C-0.36642402 224.77755387 -1.08015333 224.78647676 -1.81551081 224.79567003 C-8.05093112 224.69941287 -13.17852904 222.57303746 -17.82870483 218.47944641 C-18.27472046 217.91225891 -18.72073608 217.34507141 -19.18026733 216.76069641 C-19.64175171 216.19350891 -20.10323608 215.62632141 -20.57870483 215.04194641 C-23.68369271 210.53279205 -24.09717606 206.89185246 -24.079422 201.46852112 C-24.08465868 200.67853879 -24.08989535 199.88855646 -24.09529072 199.07463527 C-24.11030521 196.42469052 -24.11099619 193.77493861 -24.11166382 191.12495422 C-24.11928441 189.22603529 -24.12771173 187.32711945 -24.1368866 185.4282074 C-24.15885024 180.26690875 -24.16763318 175.10566936 -24.17271304 169.94432926 C-24.17635485 166.71934111 -24.18259404 163.49436852 -24.18971443 160.26938629 C-24.21421682 149.01713376 -24.22726223 137.76492738 -24.23080444 126.51264954 C-24.23443882 116.0266305 -24.26432525 105.54090433 -24.30620903 95.05497479 C-24.34091161 86.05101177 -24.35635289 77.04714578 -24.35705048 68.04311633 C-24.35784339 62.66605008 -24.36658875 57.28928197 -24.39504814 51.91228485 C-24.42122757 46.85277519 -24.42343452 41.79381086 -24.4073925 36.73426437 C-24.40557784 34.87994319 -24.41227031 33.02559067 -24.42821121 31.17133713 C-24.56484527 14.24229657 -24.56484527 14.24229657 -20.17091465 8.63567734 C-19.49491923 7.95506178 -19.49491923 7.95506178 -18.80526733 7.26069641 C-18.31748527 6.76798878 -17.8297032 6.27528114 -17.32713985 5.76764297 C-11.95060602 0.88544532 -7.05232345 -0.03682209 0 0 Z " fill="#D75949" transform="translate(23.805267333984375,278.7393035888672)"/>
<path d="M0 0 C1.1849735 -0.00785502 1.1849735 -0.00785502 2.39388585 -0.01586872 C5.0438306 -0.03088321 7.69358251 -0.03157419 10.34356689 -0.03224182 C12.24248582 -0.03986241 14.14140166 -0.04828973 16.04031372 -0.0574646 C21.20161236 -0.07942824 26.36285175 -0.08821119 31.52419186 -0.09329104 C34.74918001 -0.09693285 37.9741526 -0.10317205 41.19913483 -0.11029243 C52.45138736 -0.13479482 63.70359374 -0.14784023 74.95587158 -0.15138245 C85.44189062 -0.15501682 95.92761679 -0.18490325 106.41354632 -0.22678703 C115.41750935 -0.26148962 124.42137534 -0.27693089 133.42540479 -0.27762848 C138.80247104 -0.2784214 144.17923914 -0.28716675 149.55623627 -0.31562614 C154.61574593 -0.34180557 159.67471025 -0.34401252 164.73425674 -0.3279705 C166.58857792 -0.32615584 168.44293044 -0.33284831 170.29718399 -0.34878922 C187.22622455 -0.48542328 187.22622455 -0.48542328 192.83284378 3.90850735 C193.28658749 4.35917096 193.74033119 4.80983458 194.20782471 5.27415466 C194.94688616 6.00582777 194.94688616 6.00582777 195.70087814 6.75228214 C200.57774855 12.12294933 201.50545222 17.02091454 201.47525024 24.06596375 C201.47978136 24.84384428 201.48431247 25.62172481 201.48898089 26.42317748 C201.50162744 29.0262331 201.50000435 31.62907956 201.49835205 34.23216248 C201.50433721 36.10004953 201.51114273 37.96793411 201.51870728 39.83581543 C201.53637745 44.90828915 201.54106314 49.98069539 201.54233885 55.05319691 C201.54376063 58.22375757 201.54803078 61.39430108 201.55333328 64.56485748 C201.57183815 75.63023975 201.58000347 86.69557384 201.57843018 97.76097107 C201.57722921 108.06801942 201.59832154 118.3748582 201.6299175 128.68185353 C201.65609155 137.53638417 201.66679697 146.39084643 201.66551936 155.24541545 C201.66500998 160.53134829 201.67067953 165.81709496 201.69187546 171.1029892 C201.71127632 176.07710182 201.71136958 181.0508511 201.69684219 186.02497673 C201.69475518 187.84662089 201.69944859 189.66828789 201.71156311 191.48989296 C201.83404506 211.18905821 201.83404506 211.18905821 195.27813721 218.39524841 C194.63618408 218.82966248 193.99423096 219.26407654 193.33282471 219.71165466 C192.69602783 220.1641156 192.05923096 220.61657654 191.40313721 221.08274841 C186.16826167 223.92373958 181.27528583 224.56617294 175.40292358 224.53485107 C174.63573372 224.53867662 173.86854385 224.54250217 173.07810581 224.54644364 C170.51727106 224.55673063 167.95666232 224.55278971 165.39581299 224.54881287 C163.55571282 224.55316174 161.71561447 224.55834547 159.8755188 224.56430054 C154.88374018 224.57768335 149.8920373 224.57826997 144.90024424 224.57573724 C140.73031025 224.57466698 136.56039156 224.57955235 132.39046085 224.58434266 C122.55108741 224.5954355 112.71175215 224.59587659 102.87237549 224.58982849 C92.72834646 224.58378891 82.58445615 224.59609986 72.44045079 224.61739856 C63.72519362 224.63502327 55.00998056 224.64101452 46.29470623 224.63776082 C41.09213481 224.63594911 35.88966234 224.63857295 30.68710709 224.65247536 C25.79346406 224.66506308 20.900037 224.6631006 16.00639725 224.65006447 C14.2133629 224.64770115 12.42031331 224.65042459 10.62729645 224.65868759 C8.17351299 224.66917772 5.72045116 224.66103661 3.26669312 224.64837646 C2.56259029 224.65575075 1.85848746 224.66312503 1.13304818 224.67072278 C-6.99574051 224.58291003 -13.05430714 221.87858402 -18.79217529 216.27415466 C-22.65094227 210.81865652 -22.94100778 206.13912307 -22.93934631 199.59587097 C-22.943023 198.8181393 -22.94669969 198.04040762 -22.95048779 197.23910832 C-22.96150889 194.63066656 -22.96536578 192.02226465 -22.96917725 189.4138031 C-22.97544304 187.54444248 -22.98208994 185.67508311 -22.98908997 183.8057251 C-23.01011726 177.66500209 -23.02049043 171.52427886 -23.03045654 165.38352966 C-23.03450446 163.2688165 -23.03862139 161.15410346 -23.04280663 159.03939056 C-23.06185458 149.10497743 -23.07608701 139.17057171 -23.08441859 129.23614383 C-23.09419294 117.77099406 -23.12051934 106.30603726 -23.16091949 94.8409555 C-23.19108112 85.97712724 -23.20588748 77.1133543 -23.20919961 68.24947572 C-23.21154983 62.95628182 -23.22050706 57.66329416 -23.24566078 52.37015533 C-23.26894754 47.38950911 -23.27317223 42.40920486 -23.2628994 37.4285183 C-23.26240409 35.60322367 -23.26872296 33.77791218 -23.28245544 31.95266914 C-23.3001929 29.45482938 -23.29305978 26.95821449 -23.27992249 24.46037292 C-23.29637635 23.38466305 -23.29637635 23.38466305 -23.31316262 22.28722167 C-23.23412268 16.03477925 -21.11468094 10.91243959 -17.01092529 6.25071716 C-16.44373779 5.80470154 -15.87655029 5.35868591 -15.29217529 4.89915466 C-14.72498779 4.43767029 -14.15780029 3.97618591 -13.57342529 3.50071716 C-9.06427093 0.39572929 -5.42333134 -0.01775406 0 0 Z " fill="#7EAADA" transform="translate(301.79217529296875,-0.2741546630859375)"/>
<path d="M0 0 C2.05982261 2.86086474 2.24935442 5.47268489 2.24525452 8.87150574 C2.24731651 10.19029976 2.24731651 10.19029976 2.24942017 11.53573608 C2.24582489 12.49742706 2.24222961 13.45911804 2.23852539 14.44995117 C2.23867142 15.46476059 2.23881744 16.47957001 2.2389679 17.52513123 C2.23827026 20.88526535 2.23048478 24.24534429 2.22265625 27.60546875 C2.22079154 29.93288645 2.21936789 32.26030454 2.21836853 34.58772278 C2.21454751 40.71814047 2.20472074 46.84853453 2.19366455 52.97894287 C2.18344152 59.23270345 2.17886899 65.48646785 2.17382812 71.74023438 C2.16309813 84.01433331 2.14602666 96.28841469 2.125 108.5625 C3.41681686 108.55583817 4.70863373 108.54917633 6.03959656 108.54231262 C18.20826474 108.48152188 30.37690215 108.43653707 42.54568768 108.40706348 C48.80192578 108.39140149 55.05804138 108.37015317 61.31420898 108.33618164 C67.35071328 108.30360769 73.38709968 108.28565101 79.42368507 108.27786827 C81.72780018 108.27232127 84.03190877 108.26148948 86.33597374 108.24530983 C89.56095751 108.22356208 92.78545286 108.22053202 96.01049805 108.22192383 C96.96499847 108.211138 97.9194989 108.20035217 98.90292358 108.1892395 C105.09553544 108.21819627 108.62477722 109.06227722 113.125 113.5625 C113.81494819 118.16750307 114.04580622 122.26067052 111.3125 126.125 C108.10345304 128.23380229 105.56441948 128.68727614 101.81599426 128.68275452 C100.93679825 128.68412918 100.05760223 128.68550385 99.15176392 128.68692017 C98.19007294 128.68332489 97.22838196 128.67972961 96.23754883 128.67602539 C95.22273941 128.67617142 94.20792999 128.67631744 93.16236877 128.6764679 C89.80223465 128.67577026 86.44215571 128.66798478 83.08203125 128.66015625 C80.75461355 128.65829154 78.42719546 128.65686789 76.09977722 128.65586853 C69.96935953 128.65204751 63.83896547 128.64222074 57.70855713 128.63116455 C51.45479655 128.62094152 45.20103215 128.61636899 38.94726562 128.61132812 C26.67316669 128.60059813 14.39908531 128.58352666 2.125 128.5625 C2.13499275 130.5002253 2.13499275 130.5002253 2.14518738 132.47709656 C2.20597812 144.64576474 2.25096293 156.81440215 2.28043652 168.98318768 C2.29609851 175.23942578 2.31734683 181.49554138 2.35131836 187.75170898 C2.38389231 193.78821328 2.40184899 199.82459968 2.40963173 205.86118507 C2.41517873 208.16530018 2.42601052 210.46940877 2.44219017 212.77347374 C2.46393792 215.99845751 2.46696798 219.22295286 2.46557617 222.44799805 C2.476362 223.40249847 2.48714783 224.3569989 2.4982605 225.34042358 C2.46930373 231.53303544 1.62522278 235.06227722 -2.875 239.5625 C-7.48000307 240.25244819 -11.57317052 240.48330622 -15.4375 237.75 C-17.54630229 234.54095304 -17.99977614 232.00191948 -17.99525452 228.25349426 C-17.99731651 226.93470024 -17.99731651 226.93470024 -17.99942017 225.58926392 C-17.99402725 224.14672745 -17.99402725 224.14672745 -17.98852539 222.67504883 C-17.98867142 221.66023941 -17.98881744 220.64542999 -17.9889679 219.59986877 C-17.98827026 216.23973465 -17.98048478 212.87965571 -17.97265625 209.51953125 C-17.97079154 207.19211355 -17.96936789 204.86469546 -17.96836853 202.53727722 C-17.96454751 196.40685953 -17.95472074 190.27646547 -17.94366455 184.14605713 C-17.93344152 177.89229655 -17.92886899 171.63853215 -17.92382812 165.38476562 C-17.91309813 153.11066669 -17.89602666 140.83658531 -17.875 128.5625 C-19.8127253 128.57249275 -19.8127253 128.57249275 -21.78959656 128.58268738 C-33.95826474 128.64347812 -46.12690215 128.68846293 -58.29568768 128.71793652 C-64.55192578 128.73359851 -70.80804138 128.75484683 -77.06420898 128.78881836 C-83.10071328 128.82139231 -89.13709968 128.83934899 -95.17368507 128.84713173 C-97.47780018 128.85267873 -99.78190877 128.86351052 -102.08597374 128.87969017 C-105.31095751 128.90143792 -108.53545286 128.90446798 -111.76049805 128.90307617 C-112.71499847 128.913862 -113.6694989 128.92464783 -114.65292358 128.9357605 C-120.84553544 128.90680373 -124.37477722 128.06272278 -128.875 123.5625 C-130.03826668 119.20024995 -130.03138541 116.55181302 -127.875 112.5625 C-125.87084162 110.12265502 -124.96128136 109.59126045 -121.875 108.5625 C-120.44083536 108.47397022 -119.00288769 108.4405122 -117.56599426 108.44224548 C-116.24720024 108.44018349 -116.24720024 108.44018349 -114.90176392 108.43807983 C-113.45922745 108.44347275 -113.45922745 108.44347275 -111.98754883 108.44897461 C-110.97273941 108.44882858 -109.95792999 108.44868256 -108.91236877 108.4485321 C-105.55223465 108.44922974 -102.19215571 108.45701522 -98.83203125 108.46484375 C-96.50461355 108.46670846 -94.17719546 108.46813211 -91.84977722 108.46913147 C-85.71935953 108.47295249 -79.58896547 108.48277926 -73.45855713 108.49383545 C-67.20479655 108.50405848 -60.95103215 108.50863101 -54.69726562 108.51367188 C-42.42316669 108.52440187 -30.14908531 108.54147334 -17.875 108.5625 C-17.88499275 106.6247747 -17.88499275 106.6247747 -17.89518738 104.64790344 C-17.95597812 92.47923526 -18.00096293 80.31059785 -18.03043652 68.14181232 C-18.04609851 61.88557422 -18.06734683 55.62945862 -18.10131836 49.37329102 C-18.13389231 43.33678672 -18.15184899 37.30040032 -18.15963173 31.26381493 C-18.16517873 28.95969982 -18.17601052 26.65559123 -18.19219017 24.35152626 C-18.21393792 21.12654249 -18.21696798 17.90204714 -18.21557617 14.67700195 C-18.226362 13.72250153 -18.23714783 12.7680011 -18.2482605 11.78457642 C-18.21930373 5.59196456 -17.37522278 2.06272278 -12.875 -2.4375 C-8.48834515 -4.38712438 -3.67754612 -2.81945202 0 0 Z " fill="#22A14D" transform="translate(398.875,272.4375)"/>
</svg>
